<svg width="24" height="24" viewBox="0 0 24 24" fill="none" xmlns="http://www.w3.org/2000/svg">
  <path d="M20.37 5.03C20.829 5.1164 21.2432 5.36068 21.5409 5.7205C21.8386 6.08032 22.0011 6.53298 22 7V17C22.0001 17.5236 21.7949 18.0263 21.4284 18.4003C21.062 18.7742 20.5635 18.9895 20.04 19H4C3.46957 19 2.96086 18.7893 2.58579 18.4142C2.21071 18.0391 2 17.5304 2 17V7C2 6.46957 2.21071 5.96086 2.58579 5.58579C2.96086 5.21071 3.46957 5 4 5L20.37 5.03ZM20.5 7.1L15.97 12.41L20.5 17.04C20.5005 17.0267 20.5005 17.0133 20.5 17V7.1ZM3.5 6.96C3.49947 6.97333 3.49947 6.98667 3.5 7V17C3.49947 17.0133 3.49947 17.0267 3.5 17.04L8.09 12.34L3.5 6.97V6.96ZM9.07 13.49L5.15 17.49L18.85 17.5L15 13.56C14.6202 13.9697 14.1587 14.2953 13.6453 14.5158C13.132 14.7363 12.5781 14.8468 12.0195 14.8402C11.4608 14.8336 10.9097 14.7101 10.4017 14.4775C9.89372 14.245 9.44007 13.9086 9.07 13.49ZM18.95 6.5H5L10.07 12.46C10.3047 12.7362 10.5966 12.958 10.9256 13.1101C11.2545 13.2623 11.6126 13.3411 11.975 13.3411C12.3374 13.3411 12.6955 13.2623 13.0244 13.1101C13.3534 12.958 13.6453 12.7362 13.88 12.46L18.95 6.5Z" fill="white" />
</svg>