<svg width="24" height="24" viewBox="0 0 24 24" fill="none" xmlns="http://www.w3.org/2000/svg">
  <path d="M18.0938 18.75C20.2031 16.7812 21.1406 13.5 20.5781 10.3594H12.1875V13.8281H16.9688C16.7812 14.9531 16.125 15.8906 15.1875 16.5L18.0938 18.75Z" fill="#4285F4" />
  <path d="M4.21875 15.9844C4.83539 17.1991 5.71974 18.258 6.80512 19.0812C7.89051 19.9044 9.14861 20.4705 10.4846 20.7368C11.8206 21.0031 13.1996 20.9627 14.5177 20.6185C15.8357 20.2743 17.0585 19.6354 18.0938 18.75L15.1875 16.5C12.7031 18.1406 8.57812 17.5312 7.17188 13.6875L4.21875 15.9844Z" fill="#34A853" />
  <path d="M7.17187 13.6875C6.79687 12.5156 6.79687 11.4375 7.17187 10.2656L4.21875 7.96875C3.14062 10.125 2.8125 13.1719 4.21875 15.9844L7.17187 13.6875Z" fill="#FBBC02" />
  <path d="M7.17188 10.2657C8.20312 7.03128 12.6094 5.15628 15.5625 7.9219L18.1406 5.39065C14.4844 1.87503 7.35938 2.01565 4.21875 7.96878L7.17188 10.2657Z" fill="#EA4335" />
</svg>