<svg width="48" height="48" viewBox="0 0 48 48" fill="none" xmlns="http://www.w3.org/2000/svg">
<path d="M10.9831 18.9661C6.57413 18.9661 3 15.392 3 10.9831C3 6.57413 6.57413 3 10.9831 3C15.392 3 18.9661 6.57413 18.9661 10.9831C18.9661 15.392 15.392 18.9661 10.9831 18.9661Z" stroke="#29604D" stroke-width="6"/>
<path d="M26.0337 10.9831C26.0337 4.91728 30.951 0 37.0167 0V0C43.0825 0 47.9998 4.91728 47.9998 10.9831V10.9831C47.9998 17.0488 43.0825 21.9661 37.0167 21.9661V21.9661C30.951 21.9661 26.0337 17.0488 26.0337 10.9831V10.9831Z" fill="#29604D"/>
<path d="M26.0337 37.0163C26.0337 30.9505 30.951 26.0332 37.0167 26.0332V26.0332C43.0825 26.0332 47.9998 30.9505 47.9998 37.0163V37.0163C47.9998 43.082 43.0825 47.9993 37.0167 47.9993V47.9993C30.951 47.9993 26.0337 43.082 26.0337 37.0163V37.0163Z" fill="#29604D"/>
<path d="M0 37.0163C0 30.9505 4.91728 26.0332 10.9831 26.0332V26.0332C17.0488 26.0332 21.9661 30.9505 21.9661 37.0163V37.0163C21.9661 43.082 17.0488 47.9993 10.9831 47.9993V47.9993C4.91728 47.9993 0 43.082 0 37.0163V37.0163Z" fill="#29604D"/>
</svg>
