<svg width="20" height="20" viewBox="0 0 20 20" fill="none" xmlns="http://www.w3.org/2000/svg">
<path d="M10 20C15.5228 20 20 15.5228 20 10C20 4.47715 15.5228 0 10 0C4.47715 0 0 4.47715 0 10C0 15.5228 4.47715 20 10 20Z" fill="url(#paint0_linear_131_6)"/>
<path d="M6.68945 10.8003L7.83999 13.9209L12.9464 6.82861L6.68945 10.8003Z" fill="#C2DAEC"/>
<path d="M7.9668 11.4941L7.85645 13.9528L10.5515 11.6675L7.9668 11.4941Z" fill="#9FCDE2"/>
<path d="M14.1944 5.63207L4.12997 9.45632C3.84563 9.5643 3.85316 9.96915 4.14132 10.0666L6.73676 10.9436L12.6469 7.12964L7.9661 11.4952L11.61 14.2606C11.9891 14.5482 12.5388 14.3548 12.6542 13.8932L14.6241 6.01396C14.6875 5.75972 14.4393 5.53901 14.1944 5.63207Z" fill="#ECF8FD"/>
<defs>
<linearGradient id="paint0_linear_131_6" x1="2.92897" y1="2.92886" x2="17.0711" y2="17.071" gradientUnits="userSpaceOnUse">
<stop stop-color="#00AFE5"/>
<stop offset="1" stop-color="#0094D4"/>
</linearGradient>
</defs>
</svg>
