<svg width="24" height="24" viewBox="0 0 24 24" fill="none" xmlns="http://www.w3.org/2000/svg">
  <path d="M9.20302 17.8131C9.40193 17.8131 9.5927 17.7341 9.73335 17.5934C9.874 17.4528 9.95302 17.262 9.95302 17.0631C9.95302 16.8642 9.874 16.6734 9.73335 16.5328C9.5927 16.3921 9.40193 16.3131 9.20302 16.3131H5.59302C5.39411 16.3131 5.20334 16.3921 5.06269 16.5328C4.92204 16.6734 4.84302 16.8642 4.84302 17.0631C4.84302 17.262 4.92204 17.4528 5.06269 17.5934C5.20334 17.7341 5.39411 17.8131 5.59302 17.8131H9.20302ZM9.95302 10.4631C9.95302 10.662 9.874 10.8528 9.73335 10.9934C9.5927 11.1341 9.40193 11.2131 9.20302 11.2131H5.59302C5.39411 11.2131 5.20334 11.1341 5.06269 10.9934C4.92204 10.8528 4.84302 10.662 4.84302 10.4631C4.84302 10.2642 4.92204 10.0734 5.06269 9.93276C5.20334 9.7921 5.39411 9.71309 5.59302 9.71309H9.20302C9.40193 9.71309 9.5927 9.7921 9.73335 9.93276C9.874 10.0734 9.95302 10.2642 9.95302 10.4631ZM9.20302 14.5131C9.40193 14.5131 9.5927 14.4341 9.73335 14.2934C9.874 14.1528 9.95302 13.962 9.95302 13.7631C9.95302 13.5642 9.874 13.3734 9.73335 13.2328C9.5927 13.0921 9.40193 13.0131 9.20302 13.0131H5.59302C5.39411 13.0131 5.20334 13.0921 5.06269 13.2328C4.92204 13.3734 4.84302 13.5642 4.84302 13.7631C4.84302 13.962 4.92204 14.1528 5.06269 14.2934C5.20334 14.4341 5.39411 14.5131 5.59302 14.5131H9.20302ZM9.95302 7.16309C9.95302 7.362 9.874 7.55276 9.73335 7.69342C9.5927 7.83407 9.40193 7.91309 9.20302 7.91309H5.59302C5.39411 7.91309 5.20334 7.83407 5.06269 7.69342C4.92204 7.55276 4.84302 7.362 4.84302 7.16309C4.84302 6.96417 4.92204 6.77341 5.06269 6.63276C5.20334 6.4921 5.39411 6.41309 5.59302 6.41309H9.20302C9.40193 6.41309 9.5927 6.4921 9.73335 6.63276C9.874 6.77341 9.95302 6.96417 9.95302 7.16309ZM15.29 17.0631C15.29 17.262 15.211 17.4528 15.0703 17.5934C14.9297 17.7341 14.7389 17.8131 14.54 17.8131C14.3411 17.8131 14.1503 17.7341 14.0097 17.5934C13.869 17.4528 13.79 17.262 13.79 17.0631C13.79 16.8642 13.869 16.6734 14.0097 16.5328C14.1503 16.3921 14.3411 16.3131 14.54 16.3131C14.7389 16.3131 14.9297 16.3921 15.0703 16.5328C15.211 16.6734 15.29 16.8642 15.29 17.0631ZM14.54 14.5321C14.7389 14.5321 14.9297 14.4531 15.0703 14.3124C15.211 14.1718 15.29 13.981 15.29 13.7821C15.29 13.5832 15.211 13.3924 15.0703 13.2518C14.9297 13.1111 14.7389 13.0321 14.54 13.0321C14.3411 13.0321 14.1503 13.1111 14.0097 13.2518C13.869 13.3924 13.79 13.5832 13.79 13.7821C13.79 13.981 13.869 14.1718 14.0097 14.3124C14.1503 14.4531 14.3411 14.5321 14.54 14.5321ZM18.727 17.0631C18.727 17.262 18.648 17.4528 18.5073 17.5934C18.3667 17.7341 18.1759 17.8131 17.977 17.8131C17.7781 17.8131 17.5873 17.7341 17.4467 17.5934C17.306 17.4528 17.227 17.262 17.227 17.0631C17.227 16.8642 17.306 16.6734 17.4467 16.5328C17.5873 16.3921 17.7781 16.3131 17.977 16.3131C18.1759 16.3131 18.3667 16.3921 18.5073 16.5328C18.648 16.6734 18.727 16.8642 18.727 17.0631ZM17.977 14.5321C18.1759 14.5321 18.3667 14.4531 18.5073 14.3124C18.648 14.1718 18.727 13.981 18.727 13.7821C18.727 13.5832 18.648 13.3924 18.5073 13.2518C18.3667 13.1111 18.1759 13.0321 17.977 13.0321C17.7781 13.0321 17.5873 13.1111 17.4467 13.2518C17.306 13.3924 17.227 13.5832 17.227 13.7821C17.227 13.981 17.306 14.1718 17.4467 14.3124C17.5873 14.4531 17.7781 14.5321 17.977 14.5321Z" fill="white" fill-opacity="0.86" />
  <path fill-rule="evenodd" clip-rule="evenodd" d="M2.06299 8.46C2.06299 6.272 2.06299 5.177 2.60599 4.402C2.80615 4.11654 3.05453 3.86816 3.33999 3.668C4.11499 3.125 5.20999 3.125 7.39799 3.125C9.58599 3.125 10.681 3.125 11.457 3.668C11.742 3.868 11.991 4.117 12.191 4.402C12.734 5.177 12.734 6.272 12.734 8.46V9.72H16.478C18.785 9.72 19.938 9.72 20.738 10.32C20.965 10.49 21.166 10.692 21.337 10.918C21.937 11.718 21.937 12.872 21.937 15.18V15.666C21.937 17.973 21.937 19.126 21.337 19.926C21.167 20.153 20.965 20.355 20.739 20.525C19.939 21.125 18.785 21.125 16.477 21.125H7.52199C5.21499 21.125 4.06199 21.125 3.26199 20.525C3.03506 20.355 2.83339 20.1536 2.66299 19.927C2.06299 19.127 2.06299 17.973 2.06299 15.666V8.46ZM11.234 8.46V19.624H7.52299C6.33499 19.624 5.56699 19.622 4.99299 19.558C4.44699 19.498 4.25999 19.398 4.16199 19.324C4.04869 19.239 3.94802 19.1383 3.86299 19.025C3.78899 18.927 3.68899 18.74 3.62799 18.195C3.56499 17.62 3.56199 16.852 3.56199 15.665V8.46C3.56199 7.334 3.56399 6.606 3.62199 6.059C3.67699 5.539 3.76899 5.357 3.83399 5.263C3.93407 5.12027 4.05826 4.99608 4.20099 4.896C4.29499 4.831 4.47599 4.739 4.99699 4.684C5.54399 4.626 6.27199 4.624 7.39799 4.624C8.52399 4.624 9.25299 4.626 9.79999 4.684C10.32 4.739 10.502 4.831 10.596 4.896C10.738 4.996 10.862 5.121 10.962 5.263C11.028 5.357 11.12 5.538 11.175 6.059C11.232 6.606 11.234 7.334 11.234 8.46ZM16.478 11.219H12.75V19.625H16.478C17.665 19.625 18.433 19.623 19.008 19.559C19.553 19.499 19.74 19.398 19.838 19.324C19.9513 19.239 20.0519 19.1383 20.137 19.025C20.211 18.927 20.311 18.74 20.371 18.195C20.435 17.62 20.438 16.853 20.438 15.665V15.179C20.438 13.991 20.435 13.223 20.372 12.649C20.311 12.103 20.211 11.916 20.137 11.819C20.052 11.7053 19.9514 11.6043 19.838 11.519C19.74 11.446 19.553 11.345 19.008 11.285C18.433 11.221 17.665 11.219 16.478 11.219Z" fill="white" fill-opacity="0.86" />
</svg>